<?xml version="1.0" encoding="utf-8"?>
<svg width="128.265" height="154" viewBox="0 0 128.265 154" fill="none" stroke="none" version="1.1" xmlns:xlink="http://www.w3.org/1999/xlink" xmlns="http://www.w3.org/2000/svg">
  <g id="Group">
    <path id="Vector Subtract" d="M3.04619 1.73057L1.72465 3.05664C-0.574884 5.36407 -0.574883 9.10514 1.72465 11.4126L18.0027 27.7465C17.8075 40.277 17.869 51.7946 17.9198 61.3251L17.9198 61.3253C17.9401 65.1215 17.9587 68.6024 17.9587 71.7064C17.9586 74.9863 19.251 79.2595 22.0345 82.0525C31.1875 91.2369 44.7283 104.395 46.3107 105.983C47.8931 107.571 48.6881 108.731 48.6882 111.478L48.6882 118.541C48.6882 123.814 48.6882 130.088 48.6882 130.971C48.6882 131.056 48.6872 131.145 48.6862 131.236C48.6708 132.658 48.6487 134.693 52.1888 134.693L89.9549 134.693C92.9098 134.693 93.3006 132.993 93.3006 130.972C93.3006 128.951 93.3006 116.31 93.3006 112.703C93.3007 109.521 93.9035 107.925 95.811 105.822L116.891 126.974C119.191 129.282 122.919 129.282 125.218 126.974L126.54 125.648C128.839 123.341 128.839 119.6 126.54 117.292L11.3735 1.73057C9.074 -0.576857 5.34572 -0.576857 3.04619 1.73057ZM87.0525 97.0332L31.3594 41.149C31.3557 44.9825 31.3502 49.1714 31.3448 53.2705C31.3361 59.8275 31.3278 66.1549 31.3278 70.431C31.3278 72.5901 34.2006 75.3017 36.4898 77.4625C37.0309 77.9732 37.5394 78.4531 37.9696 78.8877C45.3697 86.3629 56.3173 97.072 57.5967 98.3644C58.8761 99.6568 61.1921 101.513 61.1921 105.781L61.1921 118.702C61.1921 118.771 61.1914 118.844 61.1906 118.918C61.1781 120.076 61.1602 121.731 64.0224 121.731L77.8232 121.731C80.2122 121.731 80.5282 120.348 80.5282 118.703C80.5281 117.058 80.5281 108.717 80.5282 105.781C80.5283 102.845 82.7201 101.408 84.7998 99.3076C85.2027 98.9006 85.9951 98.1006 87.0525 97.0332ZM99.0407 22.6699C86.9307 22.6699 56.4054 22.6723 44.9203 22.6732L33.2086 10.9213C40.6768 10.9213 88.6589 10.9213 105.85 10.9213C124.515 10.9214 123.419 26.0325 123.419 26.0325L123.419 71.7063C123.419 77.8591 122.017 79.489 119.498 82.0176C117.307 84.2154 114.531 87.0012 111.665 89.8772L102.877 81.0589C103.672 80.2554 104.407 79.5139 105.055 78.8593C107.092 76.8014 108.226 75.4748 108.226 70.467L108.226 58.4156L108.226 52.492L108.226 36.6515C108.226 27.1564 106.831 22.6699 99.0407 22.6699Z" style="fill:#FFFFFF;fill-rule:evenodd;stroke-width:0;stroke:#808080;mix-blend-mode:normal;" transform="translate(0 19.307)" />
    <path id="Rectangle" d="M15.4059 0C17.063 0 18.4059 1.34292 18.4059 3L18.4059 33.9382C18.4059 35.5953 17.063 36.9382 15.4059 36.9382L3 36.9382C1.34292 36.9382 0 35.5953 0 33.9382L0 3C0 1.34292 1.34292 0 3 0L15.4059 0Z" style="fill:#FFFFFF;mix-blend-mode:normal;" transform="translate(44.642 0)" />
    <path id="Rectangle" d="M15.4059 0C17.063 0 18.4059 1.34292 18.4059 3L18.4059 33.9382C18.4059 35.5953 17.063 36.9382 15.4059 36.9382L3 36.9382C1.34292 36.9382 0 35.5953 0 33.9382L0 3C0 1.34292 1.34292 0 3 0L15.4059 0Z" style="fill:#FFFFFF;mix-blend-mode:normal;" transform="translate(81.454 0)" />
  </g>
</svg>