<?xml version="1.0" encoding="utf-8"?>
<svg width="127" height="154" viewBox="0 0 127 154" fill="none" stroke="none" version="1.1" xmlns:xlink="http://www.w3.org/1999/xlink" xmlns="http://www.w3.org/2000/svg">
  <g id="Group">
    <path id="Oval Subtract Subtract Subtract Subtract Subtract" d="M21.7999 15.6016C8.44188 27.2367 0 44.3663 0 63.4667C0 98.5183 28.4299 126.933 63.5 126.933C98.5701 126.933 127 98.5183 127 63.4667C127 28.415 98.5701 0 63.5 0C62.2461 0 61.0007 0.0363255 59.7647 0.107979L59.7647 11.2493C60.9985 11.1624 62.2441 11.1182 63.5 11.1182C92.4265 11.1182 115.876 34.5554 115.876 63.4667C115.876 92.3779 92.4265 115.815 63.5 115.815C34.5736 115.815 11.1241 92.3779 11.1241 63.4667C11.1241 46.8387 18.8808 32.0215 30.975 22.4325L21.7999 15.6016Z" style="fill:#FFFFFF;fill-rule:evenodd;mix-blend-mode:normal;" transform="translate(0 27.067)" />
    <path id="Triangle" d="M1.95972 27.9946L38.2547 0.972761C40.8677 -0.972611 42.9859 0.0911746 42.9859 3.34879L42.9859 59.6853C42.9859 62.9429 40.8677 64.0067 38.2547 62.0613L1.95972 35.0394C-0.653244 33.0941 -0.653244 29.94 1.95972 27.9946Z" style="fill:#FFFFFF;fill-rule:evenodd;mix-blend-mode:normal;" transform="translate(29.882 0)" />
  </g>
</svg>